<svg width="28" height="30" viewBox="0 0 28 30" fill="none" xmlns="http://www.w3.org/2000/svg">
<path d="M11.104 12.585C10.192 12.585 9.472 13.335 9.472 14.25C9.472 15.165 10.208 15.915 11.104 15.915C12.016 15.915 12.736 15.165 12.736 14.25C12.752 13.335 12.016 12.585 11.104 12.585ZM16.944 12.585C16.032 12.585 15.312 13.335 15.312 14.25C15.312 15.165 16.048 15.915 16.944 15.915C17.856 15.915 18.576 15.165 18.576 14.25C18.576 13.335 17.856 12.585 16.944 12.585Z" fill="url(#paint0_linear_5510_3267)" fill-opacity="0.44"/>
<path d="M24.72 0H3.28C1.472 0 0 1.38 0 3.09V23.37C0 25.08 1.472 26.46 3.28 26.46H21.424L20.576 23.685L22.624 25.47L24.56 27.15L28 30V3.09C28 1.38 26.528 0 24.72 0ZM18.544 19.59C18.544 19.59 17.968 18.945 17.488 18.375C19.584 17.82 20.384 16.59 20.384 16.59C19.728 16.995 19.104 17.28 18.544 17.475C17.744 17.79 16.976 18 16.224 18.12C14.8537 18.3565 13.4483 18.3514 12.08 18.105C11.2767 17.9576 10.4894 17.7417 9.728 17.46C9.32665 17.3153 8.9364 17.1449 8.56 16.95C8.512 16.92 8.464 16.905 8.416 16.875C8.384 16.86 8.368 16.845 8.352 16.83C8.064 16.68 7.904 16.575 7.904 16.575C7.904 16.575 8.672 17.775 10.704 18.345C10.224 18.915 9.632 19.59 9.632 19.59C6.096 19.485 4.752 17.31 4.752 17.31C4.752 12.48 7.056 8.565 7.056 8.565C9.36 6.945 11.552 6.99 11.552 6.99L11.712 7.17C8.832 7.95 7.504 9.135 7.504 9.135C7.504 9.135 7.856 8.955 8.448 8.7C10.16 7.995 11.52 7.8 12.08 7.755C12.176 7.74 12.256 7.725 12.352 7.725C15.1266 7.37293 17.9483 7.8673 20.4 9.135C20.4 9.135 19.136 8.01 16.416 7.23L16.64 6.99C16.64 6.99 18.832 6.945 21.136 8.565C21.136 8.565 23.44 12.48 23.44 17.31C23.44 17.31 22.08 19.485 18.544 19.59Z" fill="url(#paint1_linear_5510_3267)" fill-opacity="1"/>
<defs>
<linearGradient id="paint0_linear_5510_3267" x1="-4.13836" y1="-11.25" x2="126.44" y2="-11.25" gradientUnits="userSpaceOnUse">
<stop stop-color="#E5453D"/>
<stop offset="1" stop-color="#FF7A2E"/>
</linearGradient>
<linearGradient id="paint1_linear_5510_3267" x1="-4.13836" y1="-11.25" x2="126.44" y2="-11.25" gradientUnits="userSpaceOnUse">
<stop stop-color="#E5453D"/>
<stop offset="1" stop-color="#FF7A2E"/>
</linearGradient>
</defs>
</svg>
