<svg width="29" height="29" viewBox="0 0 29 29" fill="none" xmlns="http://www.w3.org/2000/svg">
<path fill-rule="evenodd" clip-rule="evenodd" d="M29 14.5C29 22.5076 22.5076 29 14.5 29C6.49238 29 0 22.5076 0 14.5C0 6.49238 6.49238 0 14.5 0C22.5076 0 29 6.49238 29 14.5ZM15.0196 10.7046C13.6095 11.2907 10.7904 12.505 6.56367 14.3465C5.87733 14.6196 5.51725 14.8867 5.48463 15.1477C5.42904 15.5899 5.98246 15.7639 6.73404 15.9995C6.83675 16.0322 6.94308 16.0648 7.05183 16.101C7.79254 16.3415 8.78821 16.623 9.30538 16.6339C9.77542 16.6436 10.2998 16.4503 10.8786 16.0539C14.8275 13.3871 16.8659 12.0398 16.994 12.0108C17.0846 11.9903 17.2103 11.9637 17.2949 12.0398C17.3795 12.1148 17.371 12.2573 17.3625 12.296C17.307 12.5292 15.1392 14.5459 14.0155 15.5899C13.665 15.915 13.4173 16.1458 13.3666 16.1989C13.253 16.3161 13.137 16.4285 13.0258 16.536C12.3371 17.1982 11.8223 17.696 13.0548 18.508C13.6469 18.8983 14.1206 19.221 14.593 19.5424C15.109 19.894 15.6238 20.2444 16.2908 20.6818C16.4599 20.793 16.6218 20.9078 16.7801 21.0202C17.3807 21.4491 17.9208 21.8334 18.5878 21.773C18.9745 21.7367 19.3756 21.373 19.5786 20.2867C20.0583 17.7178 21.0033 12.1546 21.222 9.86121C21.2353 9.67079 21.2272 9.47948 21.1978 9.29088C21.1802 9.13854 21.106 8.99838 20.99 8.89817C20.8172 8.75679 20.5489 8.72658 20.4281 8.729C19.8831 8.73867 19.047 9.02988 15.0196 10.7046Z" fill="url(#paint0_linear_5510_3269)" fill-opacity="1"/>
<defs>
<linearGradient id="paint0_linear_5510_3269" x1="-4.28616" y1="-10.875" x2="130.956" y2="-10.875" gradientUnits="userSpaceOnUse">
<stop stop-color="#E5453D"/>
<stop offset="1" stop-color="#FF7A2E"/>
</linearGradient>
</defs>
</svg>
