<svg width="24" height="24" viewBox="0 0 24 24" fill="none" xmlns="http://www.w3.org/2000/svg">
<path d="M22.3809 6.89392C22.1663 6.71479 21.9057 6.5996 21.6288 6.56147C21.3519 6.52335 21.0698 6.56384 20.8148 6.67831L16.0726 8.78604L13.3114 3.81592C13.1815 3.58206 12.9915 3.3872 12.7609 3.25153C12.5304 3.11585 12.2677 3.04431 12.0002 3.04431C11.7327 3.04431 11.4701 3.11585 11.2395 3.25153C11.009 3.3872 10.8189 3.58206 10.689 3.81592L7.92776 8.78595L3.18478 6.67795C2.92959 6.56456 2.64781 6.52466 2.37118 6.56274C2.09454 6.60081 1.83402 6.71536 1.61895 6.89347C1.40388 7.07158 1.24279 7.30619 1.15384 7.57089C1.06488 7.83559 1.05157 8.11987 1.11542 8.39172L3.50092 18.5479C3.5463 18.7446 3.6313 18.9299 3.75071 19.0925C3.87012 19.2552 4.02145 19.3918 4.19543 19.494C4.37033 19.597 4.56413 19.6638 4.76533 19.6904C4.96653 19.717 5.17103 19.7028 5.36667 19.6489C9.70634 18.4508 14.2895 18.4504 18.6294 19.6476C18.8249 19.7015 19.0293 19.7156 19.2304 19.689C19.4315 19.6624 19.6252 19.5957 19.8 19.4928C19.974 19.3906 20.1252 19.2541 20.2446 19.0916C20.3641 18.929 20.4491 18.7439 20.4946 18.5474L22.8842 8.39254C22.9492 8.12069 22.9365 7.83603 22.8475 7.57105C22.7585 7.30607 22.5968 7.07143 22.3809 6.89392Z" fill="url(#paint0_linear_39_6866)" fill-opacity="0.48"/>
<defs>
<linearGradient id="paint0_linear_39_6866" x1="-2.15363" y1="-3.20286" x2="99.7415" y2="-3.20285" gradientUnits="userSpaceOnUse">
<stop stop-color="#E5453D"/>
<stop offset="1" stop-color="#FF7A2E"/>
</linearGradient>
</defs>
</svg>
