<svg width="24" height="24" viewBox="0 0 24 24" fill="none" xmlns="http://www.w3.org/2000/svg">
<path d="M12 2.25C9.61388 2.2527 7.32626 3.20177 5.63902 4.88902C3.95178 6.57626 3.0027 8.86388 3 11.25V20.25C2.99999 20.392 3.04028 20.531 3.11619 20.651C3.1921 20.771 3.3005 20.8669 3.4288 20.9277C3.5571 20.9885 3.70002 21.0117 3.84094 20.9944C3.98187 20.9772 4.11501 20.9203 4.22488 20.8304L6.49997 18.969L8.77515 20.8304C8.90914 20.9401 9.07694 21 9.25008 21C9.42321 21 9.59101 20.9401 9.72501 20.8304L12 18.969L14.275 20.8304C14.409 20.9401 14.5768 21 14.7499 21C14.9231 21 15.0909 20.9401 15.2249 20.8304L17.5 18.969L19.7751 20.8304C19.885 20.9203 20.0181 20.9772 20.1591 20.9944C20.3 21.0117 20.4429 20.9885 20.5712 20.9277C20.6995 20.8669 20.8079 20.771 20.8838 20.651C20.9597 20.531 21 20.392 21 20.25V11.25C20.9973 8.86388 20.0482 6.57626 18.361 4.88902C16.6737 3.20177 14.3861 2.2527 12 2.25ZM9.375 12C9.1525 12 8.93499 11.934 8.74998 11.8104C8.56498 11.6868 8.42078 11.5111 8.33564 11.3055C8.25049 11.0999 8.22821 10.8737 8.27162 10.6555C8.31502 10.4373 8.42217 10.2368 8.5795 10.0795C8.73684 9.92217 8.93729 9.81502 9.15552 9.77161C9.37375 9.7282 9.59995 9.75048 9.80552 9.83563C10.0111 9.92078 10.1868 10.065 10.3104 10.25C10.434 10.435 10.5 10.6525 10.5 10.875C10.5 11.1734 10.3815 11.4595 10.1705 11.6705C9.95952 11.8815 9.67337 12 9.375 12ZM14.625 12C14.4025 12 14.185 11.934 14 11.8104C13.815 11.6868 13.6708 11.5111 13.5856 11.3055C13.5005 11.0999 13.4782 10.8737 13.5216 10.6555C13.565 10.4373 13.6722 10.2368 13.8295 10.0795C13.9868 9.92217 14.1873 9.81502 14.4055 9.77161C14.6238 9.7282 14.85 9.75048 15.0555 9.83563C15.2611 9.92078 15.4368 10.065 15.5604 10.25C15.684 10.435 15.75 10.6525 15.75 10.875C15.75 11.1734 15.6315 11.4595 15.4205 11.6705C15.2095 11.8815 14.9234 12 14.625 12Z" fill="url(#paint0_linear_39_6867)" fill-opacity="0.48"/>
<defs>
<linearGradient id="paint0_linear_39_6867" x1="0.339623" y1="-4.78125" x2="84.283" y2="-4.78125" gradientUnits="userSpaceOnUse">
<stop stop-color="#E5453D"/>
<stop offset="1" stop-color="#FF7A2E"/>
</linearGradient>
</defs>
</svg>
