<svg width="16" height="14" viewBox="0 0 16 14" fill="none" xmlns="http://www.w3.org/2000/svg">
<path d="M4.64621 7.30934L9.64621 11.6843C9.71614 11.7455 9.80523 11.7872 9.90222 11.8041C9.99921 11.8209 10.0997 11.8123 10.1911 11.7792C10.2825 11.746 10.3606 11.69 10.4155 11.618C10.4704 11.5461 10.4998 11.4615 10.4998 11.375L10.4998 2.62496C10.4998 2.53844 10.4704 2.45385 10.4155 2.38191C10.3606 2.30996 10.2825 2.25389 10.1911 2.22077C10.0997 2.18766 9.99921 2.17899 9.90222 2.19587C9.80523 2.21274 9.71614 2.2544 9.64621 2.31558L4.64621 6.69058C4.59978 6.73121 4.56294 6.77944 4.53781 6.83253C4.51268 6.88561 4.49975 6.94251 4.49975 6.99996C4.49975 7.05742 4.51268 7.11431 4.53781 7.1674C4.56294 7.22048 4.59978 7.26871 4.64621 7.30934V7.30934Z" fill="white"/>
</svg>
