<svg width="14" height="15" viewBox="0 0 14 15" fill="none" xmlns="http://www.w3.org/2000/svg">
<path d="M13.75 2.9375C13.75 3.08668 13.6907 3.22976 13.5852 3.33525C13.4798 3.44073 13.3367 3.5 13.1875 3.5H12.625V13.625C12.6247 13.9233 12.506 14.2092 12.2951 14.4201C12.0842 14.631 11.7983 14.7497 11.5 14.75H2.5C2.20174 14.7497 1.91579 14.631 1.70488 14.4201C1.49398 14.2092 1.37534 13.9233 1.375 13.625V3.5H0.8125C0.663316 3.5 0.520242 3.44074 0.414753 3.33525C0.309263 3.22976 0.25 3.08668 0.25 2.9375C0.25 2.78832 0.309263 2.64524 0.414753 2.53975C0.520242 2.43426 0.663316 2.375 0.8125 2.375H13.1875C13.3367 2.375 13.4798 2.43427 13.5852 2.53975C13.6907 2.64524 13.75 2.78832 13.75 2.9375ZM4.18777 1.25H9.81277C9.96196 1.25 10.105 1.19074 10.2105 1.08525C10.316 0.979758 10.3753 0.836684 10.3753 0.6875C10.3753 0.538316 10.316 0.395242 10.2105 0.289752C10.105 0.184263 9.96196 0.125 9.81277 0.125H4.18777C4.03859 0.125 3.89552 0.184263 3.79003 0.289752C3.68454 0.395242 3.62527 0.538316 3.62527 0.6875C3.62527 0.836684 3.68454 0.979758 3.79003 1.08525C3.89552 1.19074 4.03859 1.25 4.18777 1.25Z" fill="#F1433A"/>
</svg>
