<svg width="55" height="55" viewBox="0 0 55 55" fill="none" xmlns="http://www.w3.org/2000/svg">
<path d="M27.5 22.3438V7.73438C27.5 6.59477 27.0473 5.50185 26.2414 4.69603C25.4356 3.89021 24.3427 3.4375 23.2031 3.4375C22.0635 3.4375 20.9706 3.89021 20.1647 4.69603C19.3589 5.50185 18.9062 6.59477 18.9062 7.73438V33.7876L14.1952 25.628C13.9133 25.1388 13.5378 24.71 13.0901 24.366C12.6424 24.022 12.1314 23.7696 11.5861 23.6233C11.0408 23.4769 10.472 23.4395 9.91226 23.5131C9.3525 23.5866 8.81273 23.7698 8.32379 24.0521C7.83485 24.3344 7.40634 24.7102 7.06274 25.1582C6.71914 25.6062 6.4672 26.1175 6.3213 26.6629C6.17541 27.2083 6.13842 27.7771 6.21247 28.3368C6.28651 28.8965 6.47013 29.4361 6.75283 29.9248C13.75 44.6875 18.0076 49.8438 27.5 49.8438C29.7571 49.8438 31.9921 49.3992 34.0773 48.5354C36.1626 47.6717 38.0574 46.4057 39.6534 44.8096C41.2494 43.2136 42.5154 41.3189 43.3792 39.2336C44.2429 37.1483 44.6875 34.9133 44.6875 32.6562V24.0625C44.6875 22.9229 44.2348 21.83 43.4289 21.0242C42.6231 20.2183 41.5302 19.7656 40.3906 19.7656C39.251 19.7656 38.1581 20.2183 37.3522 21.0242C36.5464 21.83 36.0937 22.9229 36.0937 24.0625" stroke="url(#paint0_linear_9_140)" stroke-width="5.5" stroke-linecap="round" stroke-linejoin="round"/>
<path d="M36.0938 24.0625V21.4844C36.0938 20.3448 35.641 19.2518 34.8352 18.446C34.0294 17.6402 32.9365 17.1875 31.7969 17.1875C30.6573 17.1875 29.5643 17.6402 28.7585 18.446C27.9527 19.2518 27.5 20.3448 27.5 21.4844V22.3438" stroke="url(#paint1_linear_9_140)" stroke-width="5.5" stroke-linecap="round" stroke-linejoin="round"/>
<defs>
<linearGradient id="paint0_linear_9_140" x1="0.483312" y1="-13.9648" x2="180.085" y2="-13.9648" gradientUnits="userSpaceOnUse">
<stop stop-color="#E5453D"/>
<stop offset="1" stop-color="#FF7A2E"/>
</linearGradient>
<linearGradient id="paint1_linear_9_140" x1="26.2299" y1="14.6094" x2="66.307" y2="14.6094" gradientUnits="userSpaceOnUse">
<stop stop-color="#E5453D"/>
<stop offset="1" stop-color="#FF7A2E"/>
</linearGradient>
</defs>
</svg>
