<svg width="30" height="30" viewBox="0 0 30 30" fill="none" xmlns="http://www.w3.org/2000/svg">
<g clip-path="url(#clip0_4_431)">
<path d="M8.56499 29.2975C7.61099 29.2933 6.68285 28.987 5.91374 28.4225C5.12775 27.8696 4.54125 27.0777 4.24148 26.1647C3.94172 25.2516 3.9447 24.2662 4.24999 23.355L5.71249 18.8313L1.86249 16.0163C1.09054 15.4523 0.51676 14.6585 0.223239 13.7487C-0.0702812 12.8388 -0.0685013 11.8594 0.228324 10.9507C0.52515 10.0419 1.10181 9.25026 1.8758 8.68907C2.64979 8.12788 3.58145 7.82587 4.53749 7.82626H9.24999L10.6812 3.36376C10.975 2.44993 11.5512 1.65291 12.3268 1.08748C13.1025 0.522058 14.0376 0.217407 14.9975 0.217407C15.9574 0.217407 16.8925 0.522058 17.6681 1.08748C18.4438 1.65291 19.02 2.44993 19.3137 3.36376L20.75 7.82626H25.4625C26.4184 7.82613 27.3499 8.12833 28.1237 8.68962C28.8975 9.25091 29.4739 10.0425 29.7706 10.9513C30.0673 11.86 30.0689 12.8393 29.7754 13.749C29.4818 14.6587 28.9081 15.4523 28.1362 16.0163L24.2875 18.8313L25.75 23.355C26.0449 24.2675 26.0427 25.25 25.7438 26.1613C25.445 27.0725 24.8648 27.8654 24.0867 28.426C23.3087 28.9866 22.3729 29.286 21.4139 29.2811C20.455 29.2762 19.5223 28.9673 18.75 28.3988L15 25.6413L11.25 28.4C10.4741 28.9787 9.53296 29.2933 8.56499 29.2975ZM4.53749 11.5763C4.37249 11.5762 4.21172 11.6284 4.07813 11.7252C3.94455 11.8221 3.84499 11.9586 3.79369 12.1155C3.74239 12.2723 3.74197 12.4413 3.79249 12.5984C3.84301 12.7554 3.94189 12.8925 4.07499 12.99L9.01999 16.6038C9.33841 16.8366 9.57528 17.1639 9.69692 17.5391C9.81856 17.9144 9.81876 18.3184 9.69749 18.6938L7.82249 24.5063C7.77046 24.6639 7.76992 24.8341 7.82097 24.992C7.87201 25.15 7.97198 25.2877 8.10642 25.3851C8.24086 25.4825 8.4028 25.5347 8.56883 25.534C8.73486 25.5333 8.89636 25.4798 9.02999 25.3813L13.8912 21.805C14.2133 21.568 14.6027 21.4402 15.0025 21.4402C15.4023 21.4402 15.7917 21.568 16.1137 21.805L20.975 25.38C21.1084 25.4795 21.2702 25.5337 21.4366 25.5348C21.603 25.5359 21.7655 25.4839 21.9003 25.3862C22.035 25.2885 22.1351 25.1504 22.1859 24.9919C22.2366 24.8334 22.2354 24.6628 22.1825 24.505L20.3075 18.6925C20.1862 18.3172 20.1864 17.9131 20.3081 17.5379C20.4297 17.1626 20.6666 16.8353 20.985 16.6025L25.9287 12.9888C26.0618 12.8913 26.1606 12.7544 26.2111 12.5974C26.2617 12.4405 26.2614 12.2716 26.2102 12.1148C26.1591 11.958 26.0597 11.8215 25.9263 11.7245C25.793 11.6276 25.6324 11.5753 25.4675 11.575H19.375C18.9779 11.5749 18.591 11.4487 18.2702 11.2146C17.9494 10.9806 17.7112 10.6507 17.59 10.2725L15.75 4.50876C15.6993 4.35101 15.5999 4.21341 15.466 4.1158C15.3321 4.01819 15.1707 3.96559 15.005 3.96559C14.8393 3.96559 14.6779 4.01819 14.544 4.1158C14.4101 4.21341 14.3107 4.35101 14.26 4.50876L12.4062 10.2738C12.2852 10.6513 12.0476 10.9808 11.7275 11.2148C11.4075 11.4488 11.0215 11.5754 10.625 11.5763H4.53749Z" fill="#51B37F"/>
</g>
<defs>
<clipPath id="clip0_4_431">
<rect width="30" height="30" fill="white"/>
</clipPath>
</defs>
</svg>
