<svg width="82" height="20" viewBox="0 0 82 20" fill="none" xmlns="http://www.w3.org/2000/svg">
<path d="M21.2873 7.05054H29.489V8.58076H26.2641V17.1829H24.4908V8.58076H21.2802V7.05054H21.2873ZM29.1387 9.84642H30.6546V11.2622H30.6832C30.7332 11.062 30.8262 10.869 30.9621 10.683C31.0979 10.4971 31.2624 10.3184 31.4554 10.1682C31.6485 10.0109 31.863 9.88932 32.099 9.78921C32.335 9.69626 32.5781 9.6462 32.8212 9.6462C33.0071 9.6462 33.143 9.65335 33.2145 9.6605C33.286 9.66765 33.3575 9.68195 33.4362 9.68911V11.2479C33.3217 11.2265 33.2073 11.2122 33.0858 11.1979C32.9642 11.1836 32.8498 11.1764 32.7354 11.1764C32.4637 11.1764 32.2063 11.2336 31.9631 11.3409C31.72 11.4482 31.5126 11.6126 31.3339 11.82C31.1551 12.0345 31.0121 12.2919 30.9048 12.6065C30.7976 12.9212 30.7475 13.2787 30.7475 13.6863V17.1758H29.1315V9.84642H29.1387ZM40.8656 17.1829H39.2782V16.1604H39.2496C39.0494 16.5322 38.7562 16.8254 38.3629 17.0471C37.9696 17.2687 37.5692 17.3831 37.1616 17.3831C36.1963 17.3831 35.4955 17.1472 35.0665 16.6681C34.6375 16.189 34.4229 15.4668 34.4229 14.5015V9.84642H36.039V14.3441C36.039 14.9877 36.1605 15.4453 36.4108 15.7099C36.6539 15.9745 37.0043 16.1103 37.4476 16.1103C37.7909 16.1103 38.0697 16.0603 38.2986 15.953C38.5274 15.8458 38.7133 15.7099 38.8492 15.5311C38.9922 15.3595 39.0923 15.145 39.1566 14.9019C39.221 14.6588 39.2496 14.3942 39.2496 14.1082V9.85357H40.8656V17.1829ZM43.6186 14.8304C43.6687 15.3023 43.8474 15.6312 44.1549 15.8243C44.4695 16.0102 44.8414 16.1103 45.2775 16.1103C45.4277 16.1103 45.5993 16.096 45.7924 16.0746C45.9854 16.0531 46.1714 16.0031 46.3358 15.9387C46.5074 15.8744 46.6433 15.7743 46.7577 15.6455C46.865 15.5168 46.915 15.3524 46.9079 15.145C46.9007 14.9376 46.8221 14.766 46.6791 14.6373C46.536 14.5015 46.3573 14.4013 46.1356 14.3155C45.9139 14.2369 45.6637 14.1654 45.3776 14.1082C45.0916 14.051 44.8056 13.9866 44.5124 13.9223C44.2121 13.8579 43.9189 13.7721 43.64 13.6791C43.3612 13.5862 43.1109 13.4575 42.8892 13.293C42.6676 13.1357 42.4888 12.9283 42.3601 12.6781C42.2242 12.4278 42.1599 12.1203 42.1599 11.7485C42.1599 11.348 42.26 11.0191 42.4531 10.7474C42.6461 10.4757 42.8964 10.2612 43.1896 10.0967C43.4899 9.93223 43.8188 9.81782 44.1835 9.74631C44.5482 9.68196 44.8986 9.6462 45.2275 9.6462C45.6065 9.6462 45.9711 9.68911 46.3144 9.76776C46.6576 9.84642 46.9722 9.97513 47.2511 10.161C47.53 10.3398 47.7588 10.5758 47.9447 10.8618C48.1306 11.1478 48.245 11.4982 48.2951 11.9058H46.6075C46.5289 11.5197 46.3573 11.2551 46.0784 11.1264C45.7995 10.9905 45.4778 10.9262 45.1202 10.9262C45.0058 10.9262 44.87 10.9333 44.7126 10.9548C44.5553 10.9762 44.4123 11.012 44.2693 11.062C44.1334 11.1121 44.019 11.1907 43.9189 11.2908C43.826 11.3909 43.7759 11.5197 43.7759 11.6841C43.7759 11.8843 43.8474 12.0417 43.9833 12.1632C44.1191 12.2848 44.2979 12.3849 44.5196 12.4707C44.7412 12.5493 44.9915 12.6208 45.2775 12.6781C45.5636 12.7353 45.8567 12.7996 46.1571 12.864C46.4502 12.9283 46.7363 13.0141 47.0223 13.1071C47.3083 13.2 47.5586 13.3288 47.7802 13.4932C48.0019 13.6577 48.1807 13.8579 48.3165 14.101C48.4524 14.3441 48.5239 14.6516 48.5239 15.0091C48.5239 15.4453 48.4238 15.81 48.2236 16.1175C48.0234 16.4178 47.7659 16.6681 47.4513 16.854C47.1367 17.0399 46.7792 17.1829 46.393 17.2687C46.0069 17.3545 45.6208 17.3974 45.2418 17.3974C44.777 17.3974 44.348 17.3474 43.9547 17.2401C43.5614 17.1329 43.2182 16.9756 42.9321 16.7682C42.6461 16.5537 42.4173 16.2891 42.2528 15.9745C42.0884 15.6598 42.0026 15.2809 41.9883 14.8447H43.6186V14.8304ZM48.9529 9.84642H50.1757V7.64404H51.7917V9.84642H53.2504V11.0549H51.7917V14.9734C51.7917 15.145 51.7989 15.288 51.8132 15.4167C51.8275 15.5383 51.8632 15.6455 51.9133 15.7314C51.9633 15.8172 52.042 15.8815 52.1493 15.9244C52.2565 15.9673 52.3924 15.9888 52.5783 15.9888C52.6927 15.9888 52.8071 15.9888 52.9215 15.9816C53.0359 15.9745 53.1503 15.9602 53.2647 15.9316V17.1829C53.086 17.2044 52.9072 17.2187 52.7428 17.2401C52.5711 17.2616 52.3995 17.2687 52.2208 17.2687C51.7917 17.2687 51.4485 17.2258 51.1911 17.1472C50.9337 17.0685 50.7263 16.947 50.5833 16.7896C50.4331 16.6323 50.3402 16.4393 50.2829 16.2033C50.2329 15.9673 50.1971 15.6956 50.19 15.3953V11.0692H48.9672V9.84642H48.9529ZM54.3945 9.84642H55.9248V10.8404H55.9534C56.1822 10.4113 56.4968 10.111 56.9044 9.92508C57.312 9.73916 57.7482 9.6462 58.2273 9.6462C58.8064 9.6462 59.307 9.74631 59.736 9.95368C60.1651 10.1539 60.5226 10.4328 60.8086 10.7903C61.0946 11.1478 61.302 11.5626 61.445 12.0345C61.588 12.5064 61.6595 13.0141 61.6595 13.5504C61.6595 14.0438 61.5952 14.5229 61.4665 14.9805C61.3378 15.4453 61.1447 15.8529 60.8873 16.2104C60.6299 16.568 60.3009 16.8468 59.9005 17.0614C59.5001 17.2759 59.0353 17.3831 58.4918 17.3831C58.2559 17.3831 58.0199 17.3617 57.7839 17.3188C57.5479 17.2759 57.3191 17.2044 57.1046 17.1114C56.8901 17.0185 56.6827 16.8969 56.504 16.7467C56.3181 16.5966 56.1679 16.425 56.0392 16.2319H56.0106V19.893H54.3945V9.84642ZM60.0435 13.5218C60.0435 13.1929 60.0006 12.8711 59.9148 12.5565C59.829 12.2419 59.7003 11.9701 59.5287 11.727C59.3571 11.4839 59.1425 11.2908 58.8923 11.1478C58.6348 11.0048 58.3417 10.9262 58.0127 10.9262C57.3334 10.9262 56.8186 11.1621 56.4754 11.6341C56.1321 12.106 55.9605 12.7353 55.9605 13.5218C55.9605 13.8937 56.0034 14.2369 56.0964 14.5515C56.1893 14.8661 56.3181 15.1379 56.504 15.3667C56.6827 15.5955 56.8972 15.7743 57.1475 15.903C57.3978 16.0388 57.691 16.1032 58.0199 16.1032C58.3917 16.1032 58.6992 16.0245 58.9566 15.8744C59.214 15.7242 59.4214 15.524 59.5859 15.288C59.7503 15.0449 59.8719 14.7732 59.9434 14.4657C60.0078 14.1582 60.0435 13.8436 60.0435 13.5218ZM62.8966 7.05054H64.5126V8.58076H62.8966V7.05054ZM62.8966 9.84642H64.5126V17.1829H62.8966V9.84642ZM65.9571 7.05054H67.5731V17.1829H65.9571V7.05054ZM72.5284 17.3831C71.9421 17.3831 71.4201 17.283 70.9625 17.09C70.5048 16.8969 70.1187 16.6252 69.7969 16.2891C69.4823 15.9459 69.2392 15.5383 69.0747 15.0663C68.9102 14.5944 68.8244 14.0724 68.8244 13.5075C68.8244 12.9498 68.9102 12.4349 69.0747 11.963C69.2392 11.4911 69.4823 11.0835 69.7969 10.7402C70.1115 10.397 70.5048 10.1324 70.9625 9.93938C71.4201 9.74631 71.9421 9.6462 72.5284 9.6462C73.1148 9.6462 73.6368 9.74631 74.0944 9.93938C74.5521 10.1324 74.9382 10.4042 75.26 10.7402C75.5746 11.0835 75.8177 11.4911 75.9822 11.963C76.1466 12.4349 76.2324 12.9498 76.2324 13.5075C76.2324 14.0724 76.1466 14.5944 75.9822 15.0663C75.8177 15.5383 75.5746 15.9459 75.26 16.2891C74.9453 16.6323 74.5521 16.8969 74.0944 17.09C73.6368 17.283 73.1148 17.3831 72.5284 17.3831ZM72.5284 16.1032C72.886 16.1032 73.2006 16.0245 73.4652 15.8744C73.7297 15.7242 73.9443 15.524 74.1159 15.2809C74.2875 15.0377 74.409 14.7589 74.4949 14.4514C74.5735 14.1439 74.6164 13.8293 74.6164 13.5075C74.6164 13.1929 74.5735 12.8854 74.4949 12.5708C74.4162 12.2562 74.2875 11.9844 74.1159 11.7413C73.9443 11.4982 73.7297 11.3051 73.4652 11.155C73.2006 11.0048 72.886 10.9262 72.5284 10.9262C72.1709 10.9262 71.8563 11.0048 71.5917 11.155C71.3271 11.3051 71.1126 11.5054 70.941 11.7413C70.7694 11.9844 70.6478 12.2562 70.562 12.5708C70.4834 12.8854 70.4405 13.1929 70.4405 13.5075C70.4405 13.8293 70.4834 14.1439 70.562 14.4514C70.6407 14.7589 70.7694 15.0377 70.941 15.2809C71.1126 15.524 71.3271 15.7242 71.5917 15.8744C71.8563 16.0317 72.1709 16.1032 72.5284 16.1032ZM76.7044 9.84642H77.9271V7.64404H79.5432V9.84642H81.0019V11.0549H79.5432V14.9734C79.5432 15.145 79.5503 15.288 79.5646 15.4167C79.5789 15.5383 79.6147 15.6455 79.6647 15.7314C79.7148 15.8172 79.7934 15.8815 79.9007 15.9244C80.008 15.9673 80.1438 15.9888 80.3297 15.9888C80.4441 15.9888 80.5586 15.9888 80.673 15.9816C80.7874 15.9745 80.9018 15.9602 81.0162 15.9316V17.1829C80.8374 17.2044 80.6587 17.2187 80.4942 17.2401C80.3226 17.2616 80.151 17.2687 79.9722 17.2687C79.5432 17.2687 79.1999 17.2258 78.9425 17.1472C78.6851 17.0685 78.4777 16.947 78.3347 16.7896C78.1846 16.6323 78.0916 16.4393 78.0344 16.2033C77.9843 15.9673 77.9486 15.6956 77.9414 15.3953V11.0692H76.7187V9.84642H76.7044Z" fill="white"/>
<path d="M19.3996 7.05048H11.9915L9.70335 0L7.40801 7.05048L0 7.04333L5.99935 11.4052L3.70401 18.4485L9.70335 14.0938L15.6955 18.4485L13.4074 11.4052L19.3996 7.05048Z" fill="#00B67A"/>
<path d="M13.9222 12.9997L13.4074 11.4052L9.70337 14.0938L13.9222 12.9997Z" fill="#005128"/>
</svg>
