<svg width="20" height="20" viewBox="0 0 20 20" fill="none" xmlns="http://www.w3.org/2000/svg">
<path d="M16.3156 5.625H3.6844C3.53059 5.625 3.38218 5.68172 3.26757 5.7843C3.15297 5.88687 3.08021 6.02811 3.06322 6.18098L1.95211 16.181C1.9424 16.2683 1.95123 16.3568 1.97802 16.4405C2.00481 16.5242 2.04896 16.6013 2.10758 16.6668C2.16621 16.7323 2.23798 16.7847 2.31823 16.8206C2.39848 16.8565 2.48539 16.875 2.57329 16.875H17.4267C17.5146 16.875 17.6015 16.8565 17.6818 16.8206C17.762 16.7847 17.8338 16.7323 17.8924 16.6668C17.951 16.6013 17.9952 16.5242 18.022 16.4405C18.0488 16.3568 18.0576 16.2683 18.0479 16.181L16.9368 6.18098C16.9198 6.02811 16.847 5.88687 16.7324 5.7843C16.6178 5.68172 16.4694 5.625 16.3156 5.625Z" stroke="white" stroke-width="1.875" stroke-linecap="round" stroke-linejoin="round"/>
<path d="M6.875 8.125V5.625C6.875 4.7962 7.20424 4.00134 7.79029 3.41529C8.37634 2.82924 9.1712 2.5 10 2.5C10.8288 2.5 11.6237 2.82924 12.2097 3.41529C12.7958 4.00134 13.125 4.7962 13.125 5.625V8.125" stroke="white" stroke-width="1.875" stroke-linecap="round" stroke-linejoin="round"/>
</svg>
