<svg width="24" height="24" viewBox="0 0 24 24" fill="none" xmlns="http://www.w3.org/2000/svg">
<path fill-rule="evenodd" clip-rule="evenodd" d="M4.79292 1.29289C5.18345 0.902369 5.81661 0.902369 6.20714 1.29289L9.70714 4.79289C9.99313 5.07889 10.0787 5.50901 9.92391 5.88268C9.76913 6.25636 9.40449 6.5 9.00003 6.5H8.50003V8.5C8.50003 8.87014 8.29893 9.19331 8.00003 9.36622V12H9.00003V10.5C9.00003 10.2348 9.10539 9.98043 9.29292 9.79289L11.2929 7.79289C11.6834 7.40237 12.3166 7.40237 12.7071 7.79289L14.7071 9.79289C14.8947 9.98043 15 10.2348 15 10.5V12H16V9.36622C15.7011 9.19331 15.5 8.87014 15.5 8.5V6.5H15C14.5956 6.5 14.2309 6.25636 14.0761 5.88268C13.9214 5.50901 14.0069 5.07889 14.2929 4.79289L17.7929 1.29289C18.1834 0.902369 18.8166 0.902369 19.2071 1.29289L22.7071 4.79289C22.9931 5.07889 23.0787 5.50901 22.9239 5.88268C22.7691 6.25636 22.4045 6.5 22 6.5H21.5V8.5C21.5 8.87014 21.2989 9.19331 21 9.36622V12H22C22.5523 12 23 12.4477 23 13V22C23 22.5523 22.5523 23 22 23H15C14.4477 23 14 22.5523 14 22V20C14 18.8954 13.1046 18 12 18C10.8955 18 10 18.8954 10 20V22C10 22.5523 9.55232 23 9.00003 23H2.00003C1.44775 23 1.00003 22.5523 1.00003 22V13C1.00003 12.4477 1.44775 12 2.00003 12H3.00003V9.36622C2.70113 9.19331 2.50003 8.87014 2.50003 8.5V6.5H2.00003C1.59557 6.5 1.23093 6.25636 1.07615 5.88268C0.921369 5.50901 1.00692 5.07889 1.29292 4.79289L4.79292 1.29289ZM19 9.5H18V13C18 13.5523 17.5523 14 17 14H14C13.4477 14 13 13.5523 13 13V10.9142L12 9.91421L11 10.9142V13C11 13.5523 10.5523 14 10 14H7.00003C6.44775 14 6.00003 13.5523 6.00003 13V9.5H5.00003V13C5.00003 13.5523 4.55232 14 4.00003 14H3.00003V21H8.00003V20C8.00003 17.7909 9.7909 16 12 16C14.2092 16 16 17.7909 16 20V21H21V14H20C19.4477 14 19 13.5523 19 13V9.5ZM19.5 7.5V6.5H17.5V7.5H19.5ZM19.5858 4.5L18.5 3.41421L17.4142 4.5H19.5858ZM4.50003 6.5H6.50003V7.5H4.50003V6.5ZM5.50003 3.41421L6.58582 4.5H4.41424L5.50003 3.41421Z" fill="url(#paint0_linear_39_6868)" fill-opacity="0.48"/>
<path d="M19 9.5H18V13C18 13.5523 17.5523 14 17 14H14C13.4477 14 13 13.5523 13 13V10.9142L12 9.91421L11 10.9142V13C11 13.5523 10.5523 14 10 14H7.00003C6.44775 14 6.00003 13.5523 6.00003 13V9.5H5.00003V13C5.00003 13.5523 4.55232 14 4.00003 14H3.00003V21H8.00003V20C8.00003 17.7909 9.7909 16 12 16C14.2092 16 16 17.7909 16 20V21H21V14H20C19.4477 14 19 13.5523 19 13V9.5Z" fill="url(#paint1_linear_39_6868)" fill-opacity="0.48"/>
<defs>
<linearGradient id="paint0_linear_39_6868" x1="-2.25158" y1="-7.25" x2="100.346" y2="-7.25" gradientUnits="userSpaceOnUse">
<stop stop-color="#E5453D"/>
<stop offset="1" stop-color="#FF7A2E"/>
</linearGradient>
<linearGradient id="paint1_linear_39_6868" x1="-2.25158" y1="-7.25" x2="100.346" y2="-7.25" gradientUnits="userSpaceOnUse">
<stop stop-color="#E5453D"/>
<stop offset="1" stop-color="#FF7A2E"/>
</linearGradient>
</defs>
</svg>
