<svg width="24" height="24" viewBox="0 0 24 24" fill="none" xmlns="http://www.w3.org/2000/svg">
<path fill-rule="evenodd" clip-rule="evenodd" d="M12 1.5C9.16929 1.5 6.56796 1.84294 4.64158 2.42085C3.68476 2.7079 2.8376 3.06956 2.20732 3.5166C1.60301 3.94523 1 4.60097 1 5.5C1 6.39903 1.60301 7.05477 2.20732 7.4834C2.33778 7.57593 2.47754 7.66481 2.62563 7.75012C2.53685 7.80126 2.4512 7.8536 2.36888 7.90716C1.6979 8.34368 1 9.03023 1 10.0002C1 10.8993 1.60301 11.555 2.20732 11.9836C2.33766 12.0761 2.47727 12.1649 2.62521 12.2501C2.53658 12.3012 2.45107 12.3534 2.36888 12.4069C1.6979 12.8434 1 13.53 1 14.5C1 14.5001 1 14.4999 1 14.5C1 15.399 1.60301 16.055 2.20732 16.4836C2.33772 16.5761 2.4774 16.665 2.62542 16.7502C2.53671 16.8013 2.45114 16.8536 2.36888 16.9072C1.6979 17.3437 1 18.0302 1 19.0002C1 19.8993 1.60301 20.555 2.20732 20.9836C2.8376 21.4307 3.68476 21.7923 4.64158 22.0794C6.56796 22.6573 9.16929 23.0002 12 23.0002C14.8307 23.0002 17.432 22.6573 19.3584 22.0794C20.3152 21.7923 21.1624 21.4307 21.7927 20.9836C22.397 20.555 23 19.8993 23 19.0002C23 18.0302 22.3021 17.3437 21.6311 16.9072C21.5489 16.8536 21.4633 16.8013 21.3746 16.7502C21.5226 16.665 21.6623 16.5761 21.7927 16.4836C22.397 16.055 23 15.3993 23 14.5002C23 14.5002 23 14.5003 23 14.5002C23 14.4965 23 14.4926 23 14.4889C22.9998 14.453 22.9986 14.4175 22.9965 14.3823C22.9429 13.4742 22.2746 12.8256 21.6311 12.4069C21.5489 12.3534 21.4634 12.3012 21.3748 12.2501C21.5227 12.1649 21.6623 12.0761 21.7927 11.9836C22.397 11.555 23 10.8993 23 10.0002C23 9.03022 22.3021 8.34367 21.6311 7.90716C21.5488 7.8536 21.4631 7.80126 21.3744 7.75012C21.5225 7.66481 21.6622 7.57593 21.7927 7.4834C22.397 7.05477 23 6.39903 23 5.5C23 4.60097 22.397 3.94523 21.7927 3.5166C21.1624 3.06956 20.3152 2.7079 19.3584 2.42085C17.432 1.84294 14.8307 1.5 12 1.5ZM3.36438 5.85208C3.10178 5.66581 3.02629 5.54415 3.00582 5.5C3.02629 5.45585 3.10178 5.33419 3.36438 5.14792C3.74615 4.87714 4.36346 4.59235 5.21628 4.33651C6.90919 3.82863 9.30786 3.5 12 3.5C14.6921 3.5 17.0908 3.82863 18.7837 4.33651C19.6365 4.59235 20.2538 4.87714 20.6356 5.14792C20.8982 5.33418 20.9737 5.45584 20.9942 5.5C20.9737 5.54415 20.8982 5.66582 20.6356 5.85208C20.2538 6.12286 19.6365 6.40765 18.7837 6.66349C17.0908 7.17137 14.6921 7.5 12 7.5C9.30786 7.5 6.90919 7.17137 5.21628 6.66349C4.36346 6.40765 3.74615 6.12286 3.36438 5.85208ZM18.3793 11.2781C18.5182 11.2411 18.6531 11.2029 18.7837 11.1637C19.6365 10.9079 20.2538 10.6231 20.6356 10.3523C20.8973 10.1667 20.9732 10.0453 20.994 10.0007C20.9717 9.95279 20.8823 9.80598 20.5405 9.58361C20.1178 9.30863 19.4684 9.03016 18.6053 8.78464C16.7781 9.23743 14.4769 9.5 12 9.5C9.52312 9.5 7.22186 9.23743 5.39473 8.78463C4.53155 9.03016 3.8822 9.30863 3.45952 9.58361C3.11771 9.80599 3.02827 9.95279 3.00604 10.0007C3.02683 10.0453 3.10272 10.1667 3.36438 10.3523C3.74615 10.6231 4.36346 10.9079 5.21628 11.1637C5.34694 11.2029 5.48181 11.2411 5.62069 11.2781C5.62761 11.2797 5.63452 11.2815 5.64141 11.2833C7.3032 11.7233 9.53012 12 12 12C14.4699 12 16.6968 11.7233 18.3586 11.2833C18.3655 11.2815 18.3724 11.2797 18.3793 11.2781ZM12 18.5002C14.4771 18.5002 16.7785 18.2376 18.6057 17.7848C19.4687 18.0303 20.1179 18.3087 20.5405 18.5836C20.8823 18.806 20.9717 18.9528 20.994 19.0007C20.9732 19.0453 20.8973 19.1667 20.6356 19.3523C20.2538 19.6231 19.6365 19.9079 18.7837 20.1637C17.0908 20.6716 14.6921 21.0002 12 21.0002C9.30786 21.0002 6.90919 20.6716 5.21628 20.1637C4.36346 19.9079 3.74615 19.6231 3.36438 19.3523C3.10272 19.1667 3.02683 19.0453 3.00604 19.0007C3.02827 18.9528 3.11771 18.806 3.45952 18.5836C3.88212 18.3087 4.53131 18.0303 5.39427 17.7848C7.22148 18.2376 9.52292 18.5002 12 18.5002Z" fill="url(#paint0_linear_39_6869)" fill-opacity="0.48"/>
<defs>
<linearGradient id="paint0_linear_39_6869" x1="-2.25157" y1="-6.56259" x2="100.346" y2="-6.56259" gradientUnits="userSpaceOnUse">
<stop stop-color="#E5453D"/>
<stop offset="1" stop-color="#FF7A2E"/>
</linearGradient>
</defs>
</svg>
