<svg width="20" height="20" viewBox="0 0 20 20" fill="none" xmlns="http://www.w3.org/2000/svg">
<path d="M17.1782 10.9375C17.1782 12.8438 16.421 14.6719 15.0731 16.0198C13.7251 17.3678 11.897 18.125 9.99072 18.125C8.08448 18.125 6.25631 17.3678 4.90839 16.0198C3.56047 14.6719 2.80322 12.8438 2.80322 10.9375C2.80322 9.13399 3.5752 7.05575 5.09772 4.7606C5.14316 4.6921 5.20165 4.63323 5.26987 4.58737C5.33808 4.54151 5.41468 4.50956 5.49526 4.49334C5.57584 4.47713 5.65883 4.47697 5.73948 4.49287C5.82012 4.50878 5.89683 4.54044 5.96522 4.58604L8.48678 6.2671L10.897 1.20568C10.94 1.11539 11.004 1.03672 11.0837 0.976302C11.1634 0.915883 11.2564 0.875473 11.3549 0.858467C11.4535 0.841461 11.5547 0.848355 11.65 0.878572C11.7454 0.908789 11.832 0.961444 11.9028 1.03211C13.0546 2.18194 14.3699 3.57682 15.3913 5.20349C16.5937 7.11831 17.1782 8.99392 17.1782 10.9375Z" fill="white"/>
</svg>
