<svg width="24" height="24" viewBox="0 0 24 24" fill="none" xmlns="http://www.w3.org/2000/svg">
<path d="M20.9752 3.02471C20.7866 2.83626 20.5512 2.70145 20.2932 2.63414C20.0353 2.56683 19.764 2.56946 19.5074 2.64174L2.0391 7.56866C1.74519 7.65155 1.48358 7.82218 1.28924 8.05773C1.0949 8.29329 0.977084 8.58255 0.951545 8.88686C0.926006 9.19116 0.993958 9.49602 1.14632 9.76067C1.29868 10.0253 1.52819 10.2372 1.80418 10.3679L9.11045 13.8288L14.1057 8.83355C14.2463 8.69289 14.4371 8.61387 14.636 8.61387C14.835 8.61387 15.0257 8.69289 15.1664 8.83355C15.3071 8.97421 15.3861 9.16499 15.3861 9.36391C15.3861 9.56284 15.3071 9.75362 15.1664 9.89428L10.1712 14.8895L13.6321 22.1958C13.7519 22.4528 13.9429 22.6702 14.1823 22.8223C14.4218 22.9743 14.6997 23.0546 14.9834 23.0538C15.0263 23.0538 15.0696 23.052 15.1131 23.0484C15.418 23.0245 15.708 22.9073 15.9439 22.7127C16.1798 22.5182 16.35 22.2556 16.4313 21.9608L21.3582 4.49258C21.4304 4.23594 21.433 3.9647 21.3657 3.70673C21.2984 3.44876 21.1636 3.21336 20.9752 3.02471Z" fill="url(#paint0_linear_39_6870)" fill-opacity="0.48"/>
<defs>
<linearGradient id="paint0_linear_39_6870" x1="-2.07886" y1="-5.09008" x2="93.3743" y2="-5.09008" gradientUnits="userSpaceOnUse">
<stop stop-color="#E5453D"/>
<stop offset="1" stop-color="#FF7A2E"/>
</linearGradient>
</defs>
</svg>
