<svg width="30" height="29" viewBox="0 0 30 29" fill="none" xmlns="http://www.w3.org/2000/svg">
<path d="M29.9034 8.55949C29.8866 7.34184 29.6504 6.1363 29.2054 4.99679C28.8194 4.03561 28.23 3.1627 27.4747 2.43381C26.7195 1.70492 25.8149 1.13609 24.819 0.763666C23.6534 0.34141 22.422 0.113089 21.1773 0.0884246C19.5746 0.0192927 19.0665 0 14.9983 0C10.9301 0 10.4087 1.07806e-07 8.81775 0.0884246C7.57357 0.11327 6.34276 0.341589 5.1777 0.763666C4.18157 1.13584 3.27691 1.70457 2.5216 2.43349C1.76629 3.16241 1.17696 4.03546 0.791315 4.99679C0.352895 6.12079 0.11682 7.30886 0.0932919 8.50965C0.021657 10.0579 0 10.5482 0 14.4743C0 18.4003 -1.24121e-08 18.9019 0.0932919 20.4389C0.118281 21.6415 0.353176 22.828 0.791315 23.955C1.17761 24.916 1.76737 25.7887 2.52294 26.5173C3.2785 27.2459 4.18325 27.8144 5.17936 28.1865C6.34124 28.6257 7.57226 28.8704 8.81942 28.91C10.4237 28.9791 10.9318 29 15 29C19.0682 29 19.5896 29 21.1806 28.91C22.4253 28.8863 23.6568 28.6585 24.8223 28.2363C25.818 27.8635 26.7223 27.2945 27.4775 26.5657C28.2327 25.8368 28.8223 24.9641 29.2087 24.0032C29.6468 22.8778 29.8817 21.6913 29.9067 20.4871C29.9783 18.9405 30 18.4502 30 14.5225C29.9967 10.5965 29.9967 10.0981 29.9034 8.55949ZM14.9883 21.8987C10.7336 21.8987 7.28676 18.5723 7.28676 14.4662C7.28676 10.3601 10.7336 7.03376 14.9883 7.03376C17.0309 7.03376 18.9899 7.81683 20.4342 9.21069C21.8785 10.6045 22.6899 12.495 22.6899 14.4662C22.6899 16.4375 21.8785 18.3279 20.4342 19.7218C18.9899 21.1157 17.0309 21.8987 14.9883 21.8987ZM22.9964 8.49196C22.0019 8.49196 21.2006 7.71704 21.2006 6.75884C21.2006 6.53135 21.247 6.30609 21.3372 6.09592C21.4274 5.88574 21.5596 5.69477 21.7263 5.53391C21.893 5.37305 22.0909 5.24545 22.3087 5.15839C22.5265 5.07134 22.7599 5.02653 22.9956 5.02653C23.2313 5.02653 23.4648 5.07134 23.6825 5.15839C23.9003 5.24545 24.0982 5.37305 24.2649 5.53391C24.4316 5.69477 24.5638 5.88574 24.654 6.09592C24.7442 6.30609 24.7907 6.53135 24.7907 6.75884C24.7907 7.71704 23.9877 8.49196 22.9964 8.49196Z" fill="url(#paint0_linear_5510_3266)" fill-opacity="1"/>
<path d="M14.9883 19.2942C17.7513 19.2942 19.9911 17.1327 19.9911 14.4662C19.9911 11.7998 17.7513 9.63826 14.9883 9.63826C12.2254 9.63826 9.98556 11.7998 9.98556 14.4662C9.98556 17.1327 12.2254 19.2942 14.9883 19.2942Z" fill="url(#paint1_linear_5510_3266)" fill-opacity="1"/>
<defs>
<linearGradient id="paint0_linear_5510_3266" x1="-4.43396" y1="-10.875" x2="135.472" y2="-10.875" gradientUnits="userSpaceOnUse">
<stop stop-color="#E5453D"/>
<stop offset="1" stop-color="#FF7A2E"/>
</linearGradient>
<linearGradient id="paint1_linear_5510_3266" x1="-4.43396" y1="-10.875" x2="135.472" y2="-10.875" gradientUnits="userSpaceOnUse">
<stop stop-color="#E5453D"/>
<stop offset="1" stop-color="#FF7A2E"/>
</linearGradient>
</defs>
</svg>
