<svg width="236" height="220" viewBox="0 0 236 220" fill="none" xmlns="http://www.w3.org/2000/svg">
<path d="M167.124 1.59687L16.5199 53.7388C10.533 55.8192 5.61571 60.1895 2.84689 65.8908C0.0780704 71.5922 -0.316209 78.159 1.75055 84.1507L38.2499 189.574C40.3303 195.561 44.7006 200.478 50.402 203.247C56.1033 206.015 62.6701 206.41 68.6618 204.343L136.434 180.879L141.648 195.939L119.057 203.761C117.06 204.452 115.419 205.909 114.496 207.81C113.573 209.711 113.443 211.901 114.134 213.898C114.826 215.895 116.282 217.536 118.183 218.459C120.084 219.382 122.274 219.513 124.271 218.821L184.513 197.964C186.51 197.273 188.151 195.817 189.074 193.915C189.997 192.014 190.128 189.824 189.436 187.827C188.745 185.83 187.288 184.189 185.387 183.266C183.486 182.343 181.296 182.213 179.299 182.904L156.708 190.725L151.494 175.665L219.266 152.201C225.253 150.121 230.17 145.75 232.939 140.049C235.708 134.348 236.102 127.781 234.035 121.789L197.536 16.3662C195.455 10.3793 191.085 5.46203 185.384 2.69321C179.683 -0.0756066 173.116 -0.469886 167.124 1.59687V1.59687ZM214.052 137.141L63.4476 189.283C61.4504 189.971 59.2614 189.84 57.361 188.917C55.4605 187.994 54.0038 186.355 53.3103 184.359L48.0961 169.299L213.761 111.943L218.975 127.003C219.664 129.001 219.532 131.189 218.609 133.09C217.686 134.99 216.047 136.447 214.052 137.141V137.141Z" fill="#171515"/>
</svg>
