<svg width="30" height="30" viewBox="0 0 30 30" fill="none" xmlns="http://www.w3.org/2000/svg">
<g clip-path="url(#clip0_16_602)">
<path d="M20.9663 3.625C20.0325 2.8325 19.0538 2 18.0575 1.095C17.6037 0.681097 17.0646 0.371954 16.4781 0.189433C15.8917 0.00691217 15.2723 -0.0445295 14.6638 0.0387466C14.0719 0.116162 13.5042 0.322514 13.0007 0.643246C12.4973 0.963978 12.0703 1.39128 11.75 1.895C10.5625 3.84568 9.66721 5.95979 9.09252 8.17C8.81962 7.80712 8.46968 7.50924 8.06789 7.29778C7.66609 7.08632 7.22242 6.96655 6.7688 6.94706C6.31517 6.92758 5.86287 7.00887 5.44442 7.1851C5.02597 7.36133 4.65178 7.62811 4.34877 7.96625C2.22986 10.1332 1.05663 13.0519 1.08627 16.0825C1.0581 19.1582 2.05975 22.1549 3.93173 24.5954C5.80371 27.036 8.43839 28.7801 11.4163 29.55C12.5835 29.8469 13.7831 29.998 14.9875 30C16.8152 30.0025 18.6255 29.6445 20.3147 28.9466C22.0039 28.2488 23.5389 27.2247 24.832 25.9329C26.125 24.6412 27.1506 23.1072 27.8502 21.4186C28.5497 19.7301 28.9094 17.9202 28.9088 16.0925C28.9088 10.375 25.2288 7.25 20.9663 3.625ZM21.2388 24.1075C20.8812 24.3827 20.5053 24.6332 20.1138 24.8575C20.4725 24.1085 20.6603 23.2892 20.6638 22.4587C20.6638 20.05 18.985 17.2537 16.9138 14.8025C16.6761 14.5244 16.3811 14.3011 16.0488 14.148C15.7166 13.9949 15.3552 13.9156 14.9894 13.9156C14.6236 13.9156 14.2622 13.9949 13.9299 14.148C13.5977 14.3011 13.3027 14.5244 13.065 14.8025C10.125 18.25 8.28377 21.9775 10 25C8.42167 24.1123 7.11028 22.8175 6.2025 21.2506C5.29472 19.6837 4.82379 17.902 4.83877 16.0912C4.8 14.3178 5.39627 12.5888 6.52002 11.2162C6.69669 11.5062 6.88627 11.7867 7.08877 12.0575C7.4232 12.509 7.88262 12.8527 8.41024 13.046C8.93786 13.2393 9.51055 13.2737 10.0575 13.145C10.6124 13.0213 11.1198 12.7401 11.5189 12.3353C11.9179 11.9304 12.1918 11.4191 12.3075 10.8625C12.7695 8.40913 13.6539 6.05458 14.9213 3.90375C14.9473 3.86104 14.9828 3.82493 15.0251 3.79825C15.0674 3.77158 15.1153 3.75506 15.165 3.75C15.2312 3.74137 15.2986 3.7473 15.3622 3.76738C15.4259 3.78745 15.4845 3.8212 15.5338 3.86625C16.5638 4.8025 17.575 5.6625 18.54 6.48C22.5263 9.865 25.1588 12.105 25.1588 16.0875C25.1639 17.6357 24.813 19.1644 24.1333 20.5554C23.4536 21.9464 22.4633 23.1626 21.2388 24.11V24.1075Z" fill="url(#paint0_linear_16_602)"/>
</g>
<defs>
<linearGradient id="paint0_linear_16_602" x1="-3.02652" y1="-11.25" x2="126.727" y2="-11.25" gradientUnits="userSpaceOnUse">
<stop stop-color="#E5453D"/>
<stop offset="1" stop-color="#FF7A2E"/>
</linearGradient>
<clipPath id="clip0_16_602">
<rect width="30" height="30" fill="white"/>
</clipPath>
</defs>
</svg>
