<svg width="24" height="24" viewBox="0 0 24 24" fill="none" xmlns="http://www.w3.org/2000/svg">
<path d="M17 1.5C13.9624 1.5 11.5 3.96243 11.5 7C11.5 10.0376 13.9624 12.5 17 12.5C20.0376 12.5 22.5 10.0376 22.5 7C22.5 3.96243 20.0376 1.5 17 1.5Z" fill="url(#paint0_linear_39_6872)" fill-opacity="0.48"/>
<path d="M6 8C3.51472 8 1.5 10.0147 1.5 12.5C1.5 14.9853 3.51472 17 6 17C8.48528 17 10.5 14.9853 10.5 12.5C10.5 10.0147 8.48528 8 6 8Z" fill="url(#paint1_linear_39_6872)" fill-opacity="0.48"/>
<path d="M14.5 15C12.567 15 11 16.567 11 18.5C11 20.433 12.567 22 14.5 22C16.433 22 18 20.433 18 18.5C18 16.567 16.433 15 14.5 15Z" fill="url(#paint2_linear_39_6872)" fill-opacity="0.48"/>
<defs>
<linearGradient id="paint0_linear_39_6872" x1="-1.60377" y1="-6.1875" x2="96.3302" y2="-6.1875" gradientUnits="userSpaceOnUse">
<stop stop-color="#E5453D"/>
<stop offset="1" stop-color="#FF7A2E"/>
</linearGradient>
<linearGradient id="paint1_linear_39_6872" x1="-1.60377" y1="-6.1875" x2="96.3302" y2="-6.1875" gradientUnits="userSpaceOnUse">
<stop stop-color="#E5453D"/>
<stop offset="1" stop-color="#FF7A2E"/>
</linearGradient>
<linearGradient id="paint2_linear_39_6872" x1="-1.60377" y1="-6.1875" x2="96.3302" y2="-6.1875" gradientUnits="userSpaceOnUse">
<stop stop-color="#E5453D"/>
<stop offset="1" stop-color="#FF7A2E"/>
</linearGradient>
</defs>
</svg>
