<svg width="24" height="24" viewBox="0 0 24 24" fill="none" xmlns="http://www.w3.org/2000/svg">
<path d="M20.7802 3.21968C20.6396 3.07904 20.4488 3.00002 20.2499 3H20.2475L14.2663 3.01886C14.1563 3.01921 14.0476 3.04379 13.9481 3.09085C13.8485 3.13792 13.7606 3.20631 13.6905 3.29119L7.09083 11.2803L6.3105 10.4999C6.02892 10.2191 5.64747 10.0614 5.2498 10.0614C4.85213 10.0614 4.47069 10.2192 4.18913 10.5L2.99996 11.6893C2.86064 11.8285 2.75013 11.9939 2.67473 12.1759C2.59932 12.3579 2.56051 12.5529 2.5605 12.7499C2.56049 12.9469 2.59929 13.142 2.67468 13.324C2.75006 13.506 2.86056 13.6714 2.99986 13.8106L4.95799 15.7689L2.15098 18.5759C1.87011 18.8574 1.71238 19.2388 1.7124 19.6365C1.71242 20.0342 1.87018 20.4156 2.15108 20.6971L3.30272 21.8488C3.44201 21.9881 3.60737 22.0986 3.78936 22.174C3.97136 22.2493 4.16642 22.2881 4.3634 22.2881C4.56039 22.2881 4.75545 22.2493 4.93745 22.174C5.11944 22.0986 5.2848 21.9881 5.42409 21.8488L8.231 19.0418L10.1892 21.0001C10.4708 21.2809 10.8523 21.4386 11.2499 21.4385C11.6476 21.4385 12.029 21.2808 12.3106 21L13.4998 19.8107C13.6391 19.6715 13.7496 19.5061 13.825 19.3241C13.9004 19.1421 13.9392 18.9471 13.9392 18.7501C13.9392 18.5531 13.9004 18.358 13.8251 18.176C13.7497 17.994 13.6392 17.8286 13.4999 17.6894L12.7196 16.9091L20.7086 10.3094C20.7935 10.2393 20.8619 10.1513 20.909 10.0518C20.9561 9.95228 20.9806 9.84361 20.981 9.73352L20.9999 3.75238C21.0002 3.65349 20.9809 3.55552 20.9432 3.4641C20.9055 3.37268 20.8501 3.28961 20.7802 3.21968ZM19.4821 9.37701L11.6541 15.8436L10.4356 14.625L15.5302 9.53036C15.6709 9.3897 15.7499 9.19893 15.7499 9C15.7499 8.80107 15.6709 8.6103 15.5302 8.46964C15.3896 8.32897 15.1988 8.24995 14.9999 8.24995C14.8009 8.24995 14.6102 8.32897 14.4695 8.46964L9.37486 13.5643L8.1563 12.3457L14.6228 4.51772L19.4975 4.50238L19.4821 9.37701Z" fill="url(#paint0_linear_39_6871)" fill-opacity="0.48"/>
<defs>
<linearGradient id="paint0_linear_39_6871" x1="-1.13826" y1="-4.23306" x2="88.8093" y2="-4.23305" gradientUnits="userSpaceOnUse">
<stop stop-color="#E5453D"/>
<stop offset="1" stop-color="#FF7A2E"/>
</linearGradient>
</defs>
</svg>
