<svg width="20" height="32" viewBox="0 0 20 32" fill="none" xmlns="http://www.w3.org/2000/svg">
<path d="M6.93513 21.25C7.61026 21.93 8.52594 22.312 9.48072 22.312C9.95388 22.312 10.4224 22.218 10.8595 22.0355C11.2966 21.853 11.6936 21.5855 12.028 21.2483C12.3624 20.9111 12.6274 20.5109 12.8081 20.0704C12.9887 19.63 13.0813 19.158 13.0807 18.6815V18.6428C14.9496 17.8855 16.5347 16.5553 17.6114 14.8406C18.6881 13.1258 19.2019 11.1134 19.0801 9.08819C18.9582 7.06303 18.2069 5.12779 16.9325 3.5565C15.6581 1.98521 13.9252 0.857502 11.9791 0.333061C10.7126 -0.0106877 9.38961 -0.0893968 8.09174 0.101791C6.79386 0.29298 5.54866 0.750008 4.43297 1.44467C3.31728 2.13934 2.35477 3.05691 1.60485 4.14075C0.85492 5.22459 0.333485 6.45171 0.0727194 7.74638C-0.0218324 8.21299 -0.0242028 8.69379 0.0657414 9.16132C0.155686 9.62886 0.336183 10.074 0.59693 10.4712C0.857677 10.8685 1.19357 11.2102 1.58542 11.4767C1.97727 11.7433 2.41742 11.9295 2.88072 12.0247C3.34402 12.1199 3.82141 12.1223 4.28563 12.0317C4.74985 11.9411 5.19181 11.7594 5.58627 11.4967C5.98074 11.2341 6.31998 10.8959 6.58463 10.5012C6.84929 10.1066 7.03417 9.66327 7.12872 9.19666C7.19493 8.87493 7.32518 8.57005 7.51163 8.30043C7.69808 8.03081 7.93685 7.80205 8.21352 7.62794C8.50519 7.44835 8.83065 7.33157 9.16936 7.28498C9.50808 7.23838 9.85271 7.26298 10.1815 7.35723C10.5644 7.46742 10.9131 7.67422 11.1945 7.95804C11.4759 8.24186 11.6807 8.59331 11.7895 8.97912C11.9707 9.59677 11.9014 10.2616 11.5969 10.8279C11.2923 11.3942 10.7773 11.8159 10.1647 12.0005C8.8911 12.4278 7.78739 13.2557 7.01614 14.3623C6.24489 15.4689 5.84688 16.7957 5.88072 18.1473V18.6863C5.88072 19.6479 6.26 20.5701 6.93513 21.25Z" fill="#374957"/>
<path d="M6.93513 21.25C7.61026 21.93 8.52594 22.312 9.48072 22.312C9.95388 22.312 10.4224 22.218 10.8595 22.0355C11.2966 21.853 11.6936 21.5855 12.028 21.2483C12.3624 20.9111 12.6274 20.5109 12.8081 20.0704C12.9887 19.63 13.0813 19.158 13.0807 18.6815V18.6428C14.9496 17.8855 16.5347 16.5553 17.6114 14.8406C18.6881 13.1258 19.2019 11.1134 19.0801 9.08819C18.9582 7.06303 18.2069 5.12779 16.9325 3.5565C15.6581 1.98521 13.9252 0.857502 11.9791 0.333061C10.7126 -0.0106877 9.38961 -0.0893968 8.09174 0.101791C6.79386 0.29298 5.54866 0.750008 4.43297 1.44467C3.31728 2.13934 2.35477 3.05691 1.60485 4.14075C0.85492 5.22459 0.333485 6.45171 0.0727194 7.74638C-0.0218324 8.21299 -0.0242028 8.69379 0.0657414 9.16132C0.155686 9.62886 0.336183 10.074 0.59693 10.4712C0.857677 10.8685 1.19357 11.2102 1.58542 11.4767C1.97727 11.7433 2.41742 11.9295 2.88072 12.0247C3.34402 12.1199 3.82141 12.1223 4.28563 12.0317C4.74985 11.9411 5.19181 11.7594 5.58627 11.4967C5.98074 11.2341 6.31998 10.8959 6.58463 10.5012C6.84929 10.1066 7.03417 9.66327 7.12872 9.19666C7.19493 8.87493 7.32518 8.57005 7.51163 8.30043C7.69808 8.03081 7.93685 7.80205 8.21352 7.62794C8.50519 7.44835 8.83065 7.33157 9.16936 7.28498C9.50808 7.23838 9.85271 7.26298 10.1815 7.35723C10.5644 7.46742 10.9131 7.67422 11.1945 7.95804C11.4759 8.24186 11.6807 8.59331 11.7895 8.97912C11.9707 9.59677 11.9014 10.2616 11.5969 10.8279C11.2923 11.3942 10.7773 11.8159 10.1647 12.0005C8.8911 12.4278 7.78739 13.2557 7.01614 14.3623C6.24489 15.4689 5.84688 16.7957 5.88072 18.1473V18.6863C5.88072 19.6479 6.26 20.5701 6.93513 21.25Z" fill="url(#paint0_linear_4_764)"/>
<path d="M7.48067 24.8011C8.07268 24.4027 8.76871 24.1901 9.48072 24.1901C10.4355 24.1901 11.3512 24.5721 12.0263 25.252C12.7014 25.932 13.0807 26.8542 13.0807 27.8158C13.0807 28.5329 12.8696 29.2339 12.474 29.8301C12.0784 30.4263 11.5162 30.8911 10.8584 31.1655C10.2006 31.4399 9.47672 31.5117 8.77839 31.3718C8.08006 31.2319 7.4386 30.8866 6.93513 30.3795C6.43166 29.8725 6.0888 29.2264 5.94989 28.5231C5.81098 27.8198 5.88228 27.0908 6.15475 26.4283C6.42723 25.7658 6.88865 25.1995 7.48067 24.8011Z" fill="#374957"/>
<path d="M7.48067 24.8011C8.07268 24.4027 8.76871 24.1901 9.48072 24.1901C10.4355 24.1901 11.3512 24.5721 12.0263 25.252C12.7014 25.932 13.0807 26.8542 13.0807 27.8158C13.0807 28.5329 12.8696 29.2339 12.474 29.8301C12.0784 30.4263 11.5162 30.8911 10.8584 31.1655C10.2006 31.4399 9.47672 31.5117 8.77839 31.3718C8.08006 31.2319 7.4386 30.8866 6.93513 30.3795C6.43166 29.8725 6.0888 29.2264 5.94989 28.5231C5.81098 27.8198 5.88228 27.0908 6.15475 26.4283C6.42723 25.7658 6.88865 25.1995 7.48067 24.8011Z" fill="url(#paint1_linear_4_764)"/>
<defs>
<linearGradient id="paint0_linear_4_764" x1="-2.82261" y1="-11.7905" x2="86.2396" y2="-11.7905" gradientUnits="userSpaceOnUse">
<stop stop-color="#E5453D"/>
<stop offset="1" stop-color="#FF7A2E"/>
</linearGradient>
<linearGradient id="paint1_linear_4_764" x1="-2.82261" y1="-11.7905" x2="86.2396" y2="-11.7905" gradientUnits="userSpaceOnUse">
<stop stop-color="#E5453D"/>
<stop offset="1" stop-color="#FF7A2E"/>
</linearGradient>
</defs>
</svg>
