<svg width="24" height="24" viewBox="0 0 24 24" fill="none" xmlns="http://www.w3.org/2000/svg">
<path fill-rule="evenodd" clip-rule="evenodd" d="M10.0834 3.34748L10.1736 3.41964C10.2705 3.49717 10.3351 3.60796 10.3548 3.73038L11.4742 10.6704C11.5746 11.2929 12.112 11.7501 12.742 11.7501C13.4034 11.7501 13.9565 11.2478 14.0202 10.5897L14.6843 3.72738C14.6973 3.59287 14.7642 3.46942 14.8696 3.3851L14.9222 3.34297C14.9724 3.41112 15 3.49395 15 3.5796V13.3343C15 14.5212 16.3129 15.2377 17.3111 14.5961L19.5467 13.159C19.7079 13.0553 19.8956 13.0001 20.0874 13.0001H20.2432L16.4505 19.388C16.4126 19.4244 16.3548 19.4774 16.2765 19.5422C16.0963 19.6914 15.808 19.9026 15.4044 20.1178C14.6024 20.5455 13.3256 21.0001 11.5 21.0001C9.60842 21.0001 8.33231 20.6846 7.52373 20.3331C7.11901 20.1571 6.83646 19.9744 6.65134 19.8219C6.55886 19.7458 6.49402 19.6799 6.45115 19.6295C6.43467 19.6102 6.42242 19.5942 6.4136 19.582L3.96736 12.4879L3.46541 9.97818L4.39739 11.9975C4.72663 12.7107 5.55036 13.0491 6.28586 12.7734L6.35096 12.749C6.78844 12.5851 7.05408 12.14 6.99078 11.6771L6.16014 5.6032L7.98951 10.8881C8.16813 11.4039 8.65409 11.7501 9.20015 11.7501C9.94008 11.7501 10.5263 11.1251 10.4786 10.3866L10.0372 3.54443C10.0327 3.47501 10.0492 3.40654 10.0834 3.34748ZM17.25 20.0001C18.0026 20.6586 18.0018 20.6595 18.0018 20.6595L18.001 20.6604L17.9993 20.6623L17.9954 20.6668L17.9855 20.6778C17.978 20.6861 17.9686 20.6963 17.9574 20.7082C17.935 20.7319 17.9052 20.7627 17.8678 20.7994C17.7931 20.8728 17.6881 20.9701 17.5516 21.083C17.2787 21.3089 16.8795 21.5977 16.3456 21.8825C15.2726 22.4548 13.6744 23.0001 11.5 23.0001C9.39158 23.0001 7.83437 22.649 6.72628 22.1672C5.652 21.7001 4.91718 21.0705 4.60559 20.4474C4.58596 20.4081 4.56893 20.3676 4.55463 20.3261L2.05463 13.0761C2.03999 13.0337 2.02823 12.9903 2.01942 12.9463L1.04019 8.05016C1.01348 7.91653 1 7.78049 1 7.64419V7.56374C1 5.88467 3.18395 5.23402 4.10294 6.6391M17.25 20.0001L18.0026 20.6586C18.0428 20.6127 18.0787 20.5632 18.1099 20.5107L22.4114 13.2659C23.0051 12.266 22.2845 11.0001 21.1217 11.0001H20.0874C19.5122 11.0001 18.9491 11.1655 18.4651 11.4766L17 12.4185V3.5796C17 2.94334 16.7472 2.33317 16.2974 1.88329C15.601 1.18697 14.4925 1.12556 13.7235 1.74072L13.6203 1.82329C13.0929 2.24522 12.7587 2.86261 12.6936 3.53464L12.5644 4.86951L12.3294 3.41207C12.2306 2.79947 11.9075 2.24548 11.423 1.85791L11.2527 1.72172C10.4973 1.11738 9.40825 1.1777 8.72416 1.86174C8.24676 2.33921 7.99786 2.99922 8.04132 3.67314L8.14048 5.21005L7.82364 4.29472C7.67453 3.86394 7.39998 3.48766 7.03541 3.21419L6.96886 3.16427C6.1853 2.57661 5.07358 2.73533 4.48589 3.51894C4.14494 3.97363 3.99677 4.54449 4.07376 5.1077L4.34893 7.11985L4.24748 6.90003C4.20587 6.80991 4.15745 6.72244 4.10294 6.6391" fill="url(#paint0_linear_39_6873)" fill-opacity="0.48"/>
<path d="M10.0834 3.34748L10.1736 3.41964C10.2705 3.49717 10.3351 3.60796 10.3548 3.73038L11.4742 10.6704C11.5746 11.2929 12.112 11.7501 12.742 11.7501C13.4034 11.7501 13.9565 11.2478 14.0202 10.5897L14.6843 3.72738C14.6973 3.59287 14.7642 3.46942 14.8696 3.3851L14.9222 3.34297C14.9724 3.41112 15 3.49395 15 3.5796V13.3343C15 14.5212 16.3129 15.2377 17.3111 14.5961L19.5467 13.159C19.7079 13.0553 19.8956 13.0001 20.0874 13.0001H20.2432L16.4505 19.388C16.4126 19.4244 16.3548 19.4774 16.2765 19.5422C16.0963 19.6914 15.808 19.9026 15.4044 20.1178C14.6024 20.5455 13.3256 21.0001 11.5 21.0001C9.60842 21.0001 8.33231 20.6846 7.52373 20.3331C7.11901 20.1571 6.83646 19.9744 6.65134 19.8219C6.55886 19.7458 6.49402 19.6799 6.45115 19.6295C6.43467 19.6102 6.42242 19.5942 6.4136 19.582L3.96736 12.4879L3.46541 9.97818L4.39739 11.9975C4.72663 12.7107 5.55036 13.0491 6.28586 12.7734L6.35096 12.749C6.78844 12.5851 7.05408 12.14 6.99078 11.6771L6.16014 5.6032L7.98951 10.8881C8.16813 11.4039 8.65409 11.7501 9.20015 11.7501C9.94008 11.7501 10.5263 11.1251 10.4786 10.3866L10.0372 3.54443C10.0327 3.47501 10.0492 3.40654 10.0834 3.34748Z" fill="url(#paint1_linear_39_6873)" fill-opacity="0.48"/>
<defs>
<linearGradient id="paint0_linear_39_6873" x1="-2.19599" y1="-6.82976" x2="98.6476" y2="-6.82976" gradientUnits="userSpaceOnUse">
<stop stop-color="#E5453D"/>
<stop offset="1" stop-color="#FF7A2E"/>
</linearGradient>
<linearGradient id="paint1_linear_39_6873" x1="-2.19599" y1="-6.82976" x2="98.6476" y2="-6.82976" gradientUnits="userSpaceOnUse">
<stop stop-color="#E5453D"/>
<stop offset="1" stop-color="#FF7A2E"/>
</linearGradient>
</defs>
</svg>
