<svg width="29" height="30" viewBox="0 0 29 30" fill="none" xmlns="http://www.w3.org/2000/svg">
<path d="M27.9776 17.506C28.1262 16.66 28.206 15.7952 28.206 14.9304C28.206 13.0129 27.8435 11.1518 27.1292 9.40343C26.4404 7.71149 25.4507 6.19251 24.1926 4.88783C22.9451 3.59076 21.4663 2.55767 19.8385 1.8461C18.149 1.1054 16.358 0.729414 14.5091 0.729414C13.639 0.729414 12.7652 0.815892 11.9169 0.985086C10.743 0.339979 9.43502 0.00182803 8.10652 0C5.94213 0 3.90463 0.87605 2.37469 2.46271C1.61974 3.24164 1.02116 4.16804 0.613558 5.18836C0.20596 6.20867 -0.00257034 7.30266 2.39109e-05 8.40707C2.39109e-05 9.83582 0.355318 11.242 1.01877 12.4828C0.884633 13.2874 0.812124 14.1108 0.812124 14.9304C0.812124 16.848 1.17467 18.7091 1.88888 20.4574C2.57772 22.1494 3.56384 23.6684 4.82187 24.9731C6.0799 26.2777 7.54458 27.3004 9.17603 28.0148C10.8655 28.7555 12.6565 29.1315 14.5054 29.1315C15.3103 29.1315 16.1151 29.0563 16.9055 28.9096C18.12 29.6203 19.4904 30 20.8935 30C23.0579 30 25.0954 29.1277 26.6253 27.5373C28.1589 25.9506 29 23.8376 29 21.5929C29.0036 20.1642 28.6483 18.7542 27.9776 17.506ZM14.5634 23.6308C9.69809 23.6308 7.52282 21.1493 7.52282 19.2919C7.52282 18.3369 8.20078 17.6714 9.13615 17.6714C11.2172 17.6714 10.6806 20.7733 14.5634 20.7733C16.5538 20.7733 17.6523 19.6528 17.6523 18.5061C17.6523 17.818 17.326 17.051 16.0136 16.7164L11.6848 15.5959C8.20078 14.6898 7.56633 12.7347 7.56633 10.8999C7.56633 7.08735 11.0286 5.65484 14.2807 5.65484C17.2753 5.65484 20.8065 7.3731 20.8065 9.6591C20.8065 10.6404 19.9871 11.2082 19.0517 11.2082C17.2753 11.2082 17.6016 8.65898 14.0233 8.65898C12.2468 8.65898 11.2643 9.49367 11.2643 10.6856C11.2643 11.8774 12.6673 12.2572 13.8855 12.5467L17.0904 13.2836C20.5998 14.0958 21.488 16.2201 21.488 18.2203C21.488 21.3147 19.1931 23.6308 14.5634 23.6308Z" fill="url(#paint0_linear_5510_3268)" fill-opacity="1"/>
<defs>
<linearGradient id="paint0_linear_5510_3268" x1="-4.28616" y1="-11.25" x2="130.956" y2="-11.25" gradientUnits="userSpaceOnUse">
<stop stop-color="#E5453D"/>
<stop offset="1" stop-color="#FF7A2E"/>
</linearGradient>
</defs>
</svg>
