<svg width="24" height="24" viewBox="0 0 24 24" fill="none" xmlns="http://www.w3.org/2000/svg">
<path d="M11.9995 14.25C14.899 14.25 17.2495 11.8995 17.2495 9C17.2495 6.10051 14.899 3.75 11.9995 3.75C9.10002 3.75 6.74951 6.10051 6.74951 9C6.74951 11.8995 9.10002 14.25 11.9995 14.25Z" fill="url(#paint0_linear_39_6865)" fill-opacity="0.48"/>
<path d="M11.9995 0.750001C10.3008 0.749349 8.64326 1.27331 7.25355 2.25027C5.86383 3.22723 4.80973 4.60952 4.2353 6.2082C3.66088 7.80689 3.59416 9.54396 4.04428 11.182C4.49439 12.82 5.43938 14.2791 6.75006 15.3598V22.5C6.75005 22.6279 6.78272 22.7536 6.84497 22.8653C6.90723 22.9769 6.997 23.0708 7.10576 23.138C7.21452 23.2053 7.33865 23.2435 7.46637 23.2493C7.5941 23.255 7.72117 23.228 7.83551 23.1708L11.9994 21.0885L16.1647 23.1709C16.279 23.228 16.4061 23.255 16.5338 23.2492C16.6615 23.2435 16.7856 23.2052 16.8944 23.138C17.0031 23.0708 17.0929 22.9769 17.1551 22.8652C17.2174 22.7536 17.2501 22.6278 17.2501 22.5V15.3588C18.5605 14.278 19.5052 12.8189 19.955 11.181C20.4049 9.54298 20.338 7.80605 19.7635 6.20753C19.189 4.60901 18.1348 3.22689 16.7452 2.25006C15.3555 1.27323 13.6981 0.749347 11.9995 0.750001ZM11.9995 15.75C10.6645 15.75 9.35945 15.3541 8.24941 14.6124C7.13938 13.8707 6.27422 12.8165 5.76333 11.5831C5.25243 10.3497 5.11876 8.99251 5.37921 7.68314C5.63966 6.37377 6.28254 5.17103 7.22654 4.22703C8.17055 3.28303 9.37328 2.64015 10.6827 2.3797C11.992 2.11925 13.3492 2.25292 14.5826 2.76381C15.816 3.27471 16.8702 4.13987 17.6119 5.2499C18.3536 6.35993 18.7495 7.66498 18.7495 9C18.7475 10.7896 18.0357 12.5053 16.7703 13.7707C15.5048 15.0362 13.7891 15.748 11.9995 15.75Z" fill="url(#paint1_linear_39_6865)" fill-opacity="0.48"/>
<defs>
<linearGradient id="paint0_linear_39_6865" x1="5.19762" y1="-0.1875" x2="54.1646" y2="-0.187499" gradientUnits="userSpaceOnUse">
<stop stop-color="#E5453D"/>
<stop offset="1" stop-color="#FF7A2E"/>
</linearGradient>
<linearGradient id="paint1_linear_39_6865" x1="1.31083" y1="-7.68751" x2="78.259" y2="-7.68751" gradientUnits="userSpaceOnUse">
<stop stop-color="#E5453D"/>
<stop offset="1" stop-color="#FF7A2E"/>
</linearGradient>
</defs>
</svg>
